<?xml version="1.0" encoding="UTF-8" standalone="no"?>
<!-- Created with Inkscape (http://www.inkscape.org/) -->

<svg
   width="1920"
   height="1080"
   viewBox="0 0 508 285.75"
   version="1.1"
   id="svg5"
   inkscape:version="1.1 (1:1.1+202105261517+ce6663b3b7)"
   sodipodi:docname="drawing.svg"
   xmlns:inkscape="http://www.inkscape.org/namespaces/inkscape"
   xmlns:sodipodi="http://sodipodi.sourceforge.net/DTD/sodipodi-0.dtd"
   xmlns="http://www.w3.org/2000/svg"
   xmlns:svg="http://www.w3.org/2000/svg">
  <sodipodi:namedview
     id="namedview7"
     pagecolor="#ffffff"
     bordercolor="#666666"
     borderopacity="1.0"
     inkscape:pageshadow="2"
     inkscape:pageopacity="0.0"
     inkscape:pagecheckerboard="0"
     inkscape:document-units="px"
     showgrid="false"
     inkscape:zoom="0.13055556"
     inkscape:cx="-291.06383"
     inkscape:cy="1489.7872"
     inkscape:window-width="1366"
     inkscape:window-height="704"
     inkscape:window-x="0"
     inkscape:window-y="27"
     inkscape:window-maximized="1"
     inkscape:current-layer="LAMP" />
  <defs
     id="defs2" />
  <g
     inkscape:label="Layer 1"
     inkscape:groupmode="layer"
     id="layer1">
    <g
       id="g1679"
       transform="matrix(0.0802916,0,0,0.0802916,-61.240376,30.809931)">
      <g
         id="LAMP">
        <polygon
           class="st0"
           points="2597.1,701.6 3637.1,3171 1092.1,3171 2132.1,701.6 "
           id="polygon1202"
           transform="matrix(1.0069521,0,0,1.2900455,-13.40184,-916.53164)" />
        <polyline
           class="st1"
           points="2320.5,515.8 2364.6,471.7 2408.7,515.8  "
           id="polyline1204"
           transform="translate(0,-710.63151)" />
        <line
           class="st1"
           x1="2364.6001"
           y1="-238.6021"
           x2="2364.6001"
           y2="-386.30209"
           id="line1206" />
        <circle
           class="st2"
           cx="2364.6001"
           cy="-16.058928"
           r="71"
           id="circle1208" />
        <path
           class="st3"
           d="m 2597.1,-11.435761 h -464.9 l 6.2,-28.3 c 20.4,-93.199999 115.5,-160.799999 226.3,-160.799999 55.4,0 106.9,16.9 147,45.4 40.2,28.5 69,68.699999 79.2,115.299999 z"
           id="path1210" />
        <path
           style="fill:none;stroke:#000000;stroke-width:9.88584111;stroke-linecap:butt;stroke-linejoin:miter;stroke-opacity:1;stroke-miterlimit:4;stroke-dasharray:none"
           d="M -671.40951,3779.0898 C -288.23381,3143.7302 76.975531,2034.0673 932.21305,1246.3835 1429.5654,788.31609 1218.9219,-0.83885419 1855.6217,-295.24345 c 276.6136,-127.9038 988.4671,-387.2271 1228.119,-523.3331 1042.1594,-591.87545 1863.8125,-605.27365 1863.8125,-605.27365 l -5757.73471,-14.9709 z"
           id="path204"
           sodipodi:nodetypes="csssccc" />
        <path
           style="fill:none;stroke:#000000;stroke-width:6.59056074;stroke-linecap:butt;stroke-linejoin:miter;stroke-opacity:1;stroke-miterlimit:4;stroke-dasharray:none"
           d="M -828.40091,-3611.9328 C 1785.0486,-958.17384 1924.3295,-755.75091 3479.3982,28.366076 4835.4403,712.12756 5975.0362,101.67023 6256.9122,1240.8281 c 409.3694,1654.4012 3408.9,2005.6636 3408.9,2005.6636 l 577.9668,-6794.1918 z"
           id="path1641"
           sodipodi:nodetypes="cssccc" />
        <path
           style="fill:#a0a0a0;stroke:none;stroke-width:5.41614"
           d="m -433.32591,1210.3578 c -0.0192,-20.7703 -8.53861,-353.38951 -18.93199,-739.15387 -10.39338,-385.764367 -18.90807,-720.27854 -18.92154,-743.36482 l -0.0245,-41.97506 h 322.75226 322.75228 l 64.57806,57.82495 c 75.10227,67.24858 164.74189,139.41215 220.33545,177.378991 21.48879,14.675467 39.03274,28.080407 38.98665,29.788754 -0.0487,1.708347 -29.9026,15.017377 -66.34768,29.575624 C 317.84211,25.974819 298.04049,36.910254 259.86382,75.41327 216.56728,119.07993 200.44858,151.46831 162.6225,270.80686 119.87358,405.67658 107.50176,427.69085 27.299384,511.60013 -123.3689,669.23215 -192.44589,775.33953 -351.69334,1093.7612 c -84.25201,168.4653 -81.5881,164.6604 -81.63257,116.5966 z"
           id="path7688"
           transform="matrix(3.2952804,0,0,3.2952804,762.72457,-383.72546)" />
      </g>
      <g
         id="BOOKSHELF">
        <g
           id="g1231">
          <rect
             x="3033.8999"
             y="2294.2"
             class="st4"
             width="47.200001"
             height="298"
             id="rect1213" />
          <path
             class="st5"
             d="m 3938.2,2592.2 h -268.7 c -9.7,0 -17.2,-8.4 -16,-18 l 37.4,-315.7 c 1,-8.1 7.9,-14.2 16,-14.2 h 268.7 c 9.7,0 17.2,8.4 16,18 l -37.4,315.7 c -1,8.1 -7.9,14.2 -16,14.2 z"
             id="path1215" />
          <path
             class="st6"
             d="m 3791.8,2592.2 h -212.2 c -13,0 -23.1,-11.4 -21.6,-24.3 l 27.2,-229.9 c 1.3,-10.9 10.6,-19.2 21.6,-19.2 h 217.3 z"
             id="path1217" />
          <path
             class="st6"
             d="m 3815.6,2592.2 h -202.5 c -13,0 -23.1,-11.4 -21.6,-24.3 l 27.2,-229.9 c 1.3,-10.9 10.6,-19.2 21.6,-19.2 h 205.1 c 6.5,0 11.6,5.7 10.8,12.2 l -29.8,251.5 c -0.6,5.6 -5.3,9.7 -10.8,9.7 z"
             id="path1219" />
          <rect
             x="3084.1001"
             y="2339"
             class="st3"
             width="81.900002"
             height="253.2"
             id="rect1221" />
          <rect
             x="3137.5"
             y="2339"
             class="st3"
             width="115.3"
             height="253.2"
             id="rect1223" />
          <polygon
             class="st3"
             points="3392.5,2592.2 3360.6,2592.2 3241.9,2311.2 3273.8,2311.2 "
             id="polygon1225" />
          <polygon
             class="st3"
             points="3453.3,2592.2 3393.9,2592.2 3291.7,2353.9 3351.1,2353.9 "
             id="polygon1227" />
          <rect
             x="2948.3"
             y="2339"
             class="st3"
             width="82.599998"
             height="253.2"
             id="rect1229" />
        </g>
        <g
           id="g1255">
          <g
             id="g1241">
            <rect
               x="2948.3"
               y="2144.8999"
               class="st3"
               width="384.20001"
               height="49.400002"
               id="rect1233" />
            <rect
               x="2948.3"
               y="2107.1001"
               class="st7"
               width="486.70001"
               height="39.799999"
               id="rect1235" />
            <rect
               x="2948.3"
               y="2049.7"
               class="st8"
               width="328.5"
               height="56.400002"
               id="rect1237" />
            <rect
               x="2948.3"
               y="2006.6"
               class="st3"
               width="384.20001"
               height="42.099998"
               id="rect1239" />
          </g>
          <g
             id="g1253">
            <path
               class="st6"
               d="m 3995.4,1895.6 -0.3,1.7 -45.4,297 h -421.2 l 45.4,-297 0.6,-4.2 c 7.2,-14.6 51.2,-25.9 104.5,-25.9 58.3,0 105.5,13.5 105.5,30.1 0,-16.6 47.2,-30.1 105.5,-30.1 56.3,0.1 102.2,12.6 105.4,28.4 z"
               id="path1243" />
            <line
               class="st1"
               x1="3739.6001"
               y1="2194.3999"
               x2="3784.6001"
               y2="1897.4"
               id="line1245" />
            <path
               class="st8"
               d="m 3739.6,2194.4 c 0,-16.6 -47.2,-30.1 -105.5,-30.1 -58.3,0 -105.5,13.5 -105.5,30.1 z"
               id="path1247" />
            <path
               class="st8"
               d="m 3950.6,2194.4 c 0,-16.6 -47.2,-30.1 -105.5,-30.1 -58.3,0 -105.5,13.5 -105.5,30.1 z"
               id="path1249" />
            <path
               class="st9"
               d="m 3741.2,2188.1 c -0.6,-16.6 46.1,-31.7 104.4,-33.8 36.4,-1.3 72.3,3.8 91.2,11.1 l 45,-282.9"
               id="path1251" />
          </g>
        </g>
        <g
           id="g1281">
          <path
             class="st10"
             d="m 3961.8,1796.5 h -378.2 v -84.2 c 0,-8.3 6.7,-15 15,-15 h 348.3 c 8.3,0 15,6.7 15,15 v 84.2 z"
             id="path1257" />
          <path
             class="st8"
             d="m 3992,1693.3 h -325.9 c -5.1,0 -9.1,-4.1 -9.1,-9.1 v -33.5 c 0,-5.1 4.1,-9.1 9.1,-9.1 H 3992 c 5.1,0 9.1,4.1 9.1,9.1 v 33.5 c 0,5 -4.1,9.1 -9.1,9.1 z"
             id="path1259" />
          <rect
             x="3618.1001"
             y="1610.2"
             class="st7"
             width="386.60001"
             height="31.4"
             id="rect1261" />
          <path
             class="st10"
             d="m 3997.7,1610.2 h -295.1 c -3.9,0 -7,-3.2 -7,-7 v -25.3 c 0,-3.9 3.2,-7 7,-7 h 295.1 c 3.9,0 7,3.2 7,7 v 25.3 c 0,3.8 -3.1,7 -7,7 z"
             id="path1263" />
          <rect
             x="3072.3999"
             y="1487.6"
             class="st3"
             width="113.5"
             height="308.89999"
             id="rect1265" />
          <rect
             x="3026.6001"
             y="1487.6"
             class="st10"
             width="45.799999"
             height="308.89999"
             id="rect1267" />
          <rect
             x="2949.6001"
             y="1487.6"
             class="st10"
             width="77"
             height="308.89999"
             id="rect1269" />
          <rect
             x="3200.8999"
             y="1543.4"
             class="st3"
             width="99.5"
             height="253.2"
             id="rect1271" />
          <path
             class="st10"
             d="m 3208.1,1796.5 h -39.2 c -3.8,0 -7,-3.1 -7,-7 v -239.3 c 0,-3.8 3.1,-7 7,-7 h 39.2 c 3.8,0 7,3.1 7,7 v 239.3 c -0.1,3.9 -3.2,7 -7,7 z"
             id="path1273" />
          <polygon
             class="st5"
             points="3246.5,1543.4 3300.4,1543.4 3300.4,1682.2 "
             id="polygon1275" />
          <path
             class="st6"
             d="m 3530.8,1796.5 h -159.2 c -3.5,0 -6.7,-2.2 -7.9,-5.4 l -103.4,-266.2 c -2.2,-5.6 1.9,-11.6 7.9,-11.6 h 159.2 c 3.5,0 6.7,2.2 7.9,5.4 l 103.4,266.2 c 2.2,5.6 -1.9,11.6 -7.9,11.6 z"
             id="path1277" />
          <path
             class="st6"
             d="m 3556.8,1796.5 h -159.2 c -3.5,0 -6.7,-2.2 -7.9,-5.4 l -103.4,-266.2 c -2.2,-5.6 1.9,-11.6 7.9,-11.6 h 159.2 c 3.5,0 6.7,2.2 7.9,5.4 l 103.4,266.2 c 2.2,5.6 -1.9,11.6 -7.9,11.6 z"
             id="path1279" />
        </g>
        <g
           id="g1291">
          <path
             class="st1"
             d="m 3836.4,1331.1 c -14.9,4.2 -30.7,6.5 -46.9,6.5 -94.7,0 -171.4,-76.7 -171.4,-171.4 0,-78.1 52.3,-144.1 123.8,-164.7 z"
             id="path1283" />
          <line
             class="st1"
             x1="3789.5"
             y1="1337.6"
             x2="3789.5"
             y2="1398.7"
             id="line1285" />
          <circle
             class="st11"
             cx="3789.5"
             cy="1166.2"
             r="145.2"
             id="circle1287" />
          <polygon
             class="st6"
             points="3789.3,1368.2 3850.2,1398.3 3729.3,1398.3 "
             id="polygon1289" />
        </g>
        <path
           class="st3"
           d="M 4004.7,1398.7 V 3171 H 3950 v -129 c 0,-28.7 -23.3,-52 -52,-52 h -843.6 c -28.7,0 -52,23.3 -52,52 v 129 h -54.1 V 1398.7 Z"
           id="path1293" />
        <path
           class="st12"
           d="m 3928.8,2940.9 h -906.6 c -11.5,0 -20.9,-9.3 -20.9,-20.9 v -260.9 c 0,-11.5 9.3,-20.9 20.9,-20.9 h 906.6 c 11.5,0 20.9,9.3 20.9,20.9 V 2920 c 0,11.6 -9.4,20.9 -20.9,20.9 z"
           id="path1295" />
        <g
           id="g1307">
          <polygon
             class="st5"
             points="3438.1,1398.7 3523.3,1155.3 3523.3,1398.7 "
             id="polygon1297" />
          <path
             class="st6"
             d="m 3523.3,1155.3 -0.6,1.8 -84.1,241.6 h -391 l 84.1,-241.6 2.7,-7.7 v 0 c 12.6,-18.1 47.5,-31.3 89.1,-32 0.7,0 1.3,0 2,0 0.7,0 1.3,0 2,0 48.6,0 91.9,16.9 99.8,39.1 7.8,-22.2 49.2,-39.1 97.8,-39.1 47.6,0 89.3,16.3 98.2,37.9 z"
             id="path1299" />
          <line
             class="st9"
             x1="3327.2"
             y1="1156.5"
             x2="3242.3"
             y2="1393.7"
             id="line1301" />
          <path
             class="st8"
             d="m 3242.1,1395.7 h -194.5 c 7.2,-22.5 47.6,-39.8 96.2,-39.8 48.8,0 91.1,17.3 98.3,39.8 z"
             id="path1303" />
          <path
             class="st8"
             d="m 3438.1,1395.7 h -194.5 c 7.2,-22.5 47.6,-39.8 96.2,-39.8 48.8,0 91.1,17.3 98.3,39.8 z"
             id="path1305" />
        </g>
        <path
           class="st3"
           d="m 3410.4,2715.5 c 0,-7.8 6.3,-14.2 14.2,-14.2 h 106.1 c 7.8,0 14.2,6.3 14.2,14.2"
           id="path1309" />
        <line
           class="st3"
           x1="2948.3"
           y1="2194.3999"
           x2="4004.7"
           y2="2194.3999"
           id="line1311" />
        <line
           class="st3"
           x1="2948.3"
           y1="1796.5"
           x2="4004.7"
           y2="1796.5"
           id="line1313" />
        <line
           class="st3"
           x1="2948.3"
           y1="2592.2"
           x2="4004.7"
           y2="2592.2"
           id="line1315" />
        <polyline
           class="st13"
           points="3078.3,1027.1 2948.3,1398.7 4004.7,1398.7 4134.7,1027.1  "
           id="polyline1317" />
      </g>
      <g
         id="PLANT">
        <g
           id="g1364">
          <path
             class="st7"
             d="m 4253.3,3075.6 c 0,20.1 -3.7,39.4 -10.5,57.3 -9.9,26 -35,43 -62.9,43 h -211.7 c -27.8,0 -53,-17 -62.8,-43 -6.8,-17.9 -10.5,-37.2 -10.5,-57.3 0,-58 30.7,-109.2 77.6,-139.8 V 2902 c 0,14.8 45.5,26.8 101.5,26.8 56.1,0 101.5,-12 101.5,-26.8 v 33.9 c 47.1,30.5 77.8,81.7 77.8,139.7 z"
             id="path1320" />
          <g
             id="g1324">
            <path
               class="st14"
               d="m 4175.7,2926.6 v 9 c -16.1,12.8 -59.9,19.6 -101.5,19.6 -41.6,0 -85.4,-6.8 -101.5,-19.6 v -9 c 1.9,4.3 10,9.9 28,14.6 19.6,5.2 45.7,8 73.5,8 27.8,0 53.9,-2.8 73.5,-8 18,-4.8 26,-10.4 28,-14.6 z"
               id="path1322" />
          </g>
          <path
             class="st4"
             d="m 4175.7,2902 c 0,14.8 -45.5,26.8 -101.5,26.8 -56,0 -101.5,-12 -101.5,-26.8 0,-1.9 0.7,-3.7 2.1,-5.5 9.6,-12.1 50.4,-21.3 99.4,-21.3 49,0 89.8,9.1 99.4,21.3 1.3,1.8 2.1,3.6 2.1,5.5 z"
             id="path1326" />
          <g
             id="g1362">
            <circle
               class="st1"
               cx="3938.3"
               cy="3020.3"
               r="12.8"
               id="circle1328" />
            <circle
               class="st1"
               cx="3981.7"
               cy="3051.8"
               r="12.8"
               id="circle1330" />
            <circle
               class="st1"
               cx="4035.7"
               cy="3014.3999"
               r="12.8"
               id="circle1332" />
            <circle
               class="st1"
               cx="4028.1001"
               cy="3099.3999"
               r="12.8"
               id="circle1334" />
            <circle
               class="st1"
               cx="3980.1001"
               cy="3136.7"
               r="12.8"
               id="circle1336" />
            <circle
               class="st1"
               cx="3931.7"
               cy="3099.3999"
               r="12.8"
               id="circle1338" />
            <circle
               class="st1"
               cx="3988.7"
               cy="2972.8"
               r="12.8"
               id="circle1340" />
            <circle
               class="st1"
               cx="4090.6001"
               cy="2982.5"
               r="12.8"
               id="circle1342" />
            <circle
               class="st1"
               cx="4079.8999"
               cy="3060.1001"
               r="12.8"
               id="circle1344" />
            <circle
               class="st1"
               cx="4116.8999"
               cy="3111.1001"
               r="12.8"
               id="circle1346" />
            <circle
               class="st1"
               cx="4068.8999"
               cy="3149.5"
               r="12.8"
               id="circle1348" />
            <circle
               class="st1"
               cx="4130.6001"
               cy="3029.5"
               r="12.8"
               id="circle1350" />
            <circle
               class="st1"
               cx="4167.7002"
               cy="2977"
               r="12.8"
               id="circle1352" />
            <circle
               class="st1"
               cx="4209.8999"
               cy="3019.5"
               r="12.8"
               id="circle1354" />
            <circle
               class="st1"
               cx="4161.6001"
               cy="3061.3999"
               r="12.8"
               id="circle1356" />
            <circle
               class="st1"
               cx="4219.3999"
               cy="3088.2"
               r="12.8"
               id="circle1358" />
            <circle
               class="st1"
               cx="4180.5"
               cy="3137.3999"
               r="12.8"
               id="circle1360" />
          </g>
        </g>
        <g
           id="g1380">
          <path
             class="st6"
             d="m 4298.4,2746.2 c 0,0 95,-51.3 110.7,38.3 18.2,103.5 -105.4,194.6 -105.4,194.6 0,0 -26.6,-65.9 -97.9,-122.7 -61.7,-49.1 -10.5,-179.3 92.6,-110.2 z"
             id="path1366" />
          <path
             class="st8"
             d="m 4111.9,2632.1 c 45.1,0.4 109.9,-91.2 48.7,-191.7 -73.9,-121.4 -86.6,-191.7 -86.6,-191.7 0,0 -108.7,143.8 -90.2,254.1 20.3,120.8 128.1,129.3 128.1,129.3 z"
             id="path1368" />
          <path
             class="st6"
             d="m 4119.7,2571.1 c 65.9,17.4 128.5,-22.7 129.8,-114.1 2.3,-161.6 32.9,-214.2 32.9,-214.2 0,0 -205.3,73.9 -236.4,188.7 -29.6,109.4 73.7,139.6 73.7,139.6 z"
             id="path1370" />
          <path
             class="st8"
             d="m 3844.3,2677.5 c -2.4,0.2 -4.9,0.4 -7.6,0.6 -141.8,10.6 -182.6,140.4 -182.6,140.4 0,0 -8.7,-9.4 -6.9,-41.9 3.4,-83.8 80.5,-170.4 168.5,-115.4 9.8,6.2 19.4,11.5 28.6,16.3 z"
             id="path1372" />
          <path
             class="st6"
             d="m 4005.1,2709.4 c -25,1.6 -82.1,8.5 -160.8,-31.9 -9.2,-4.7 -18.8,-10.1 -28.6,-16.3 -88,-55 -163.1,31.6 -166.5,115.4 -0.2,4.1 0.8,8.2 1,12.2 -8.3,-72.8 -8.1,-254 212.2,-247.9 151.4,4.4 142.7,168.5 142.7,168.5 z"
             id="path1374" />
          <path
             class="st1"
             d="m 4041.1,2896.7 c 0,0 26.1,-363.7 -326.6,-316.2"
             id="path1376" />
          <path
             class="st1"
             d="m 4282.4,2242.8 c -222.2,227 -180.8,653.9 -180.8,653.9 -23.4,-163.3 120.2,-325.6 196.7,-154.8 22.8,50.8 5.3,237.1 5.3,237.1"
             id="path1378" />
        </g>
      </g>
      <g
         id="CHAIR__x26__TABLE">
        <g
           id="CHAIR">
          <path
             class="st8"
             d="m 990,2610.8 -29.8,26.1 c -4.8,-5.7 -9.1,-12 -12.8,-18.9 L 761.6,2271.8 c -7.8,-14.5 2.7,-32 19.1,-32 h 26 c 20.8,0 39.8,11.4 49.6,29.7 l 146.1,272.2 c 12.6,23.2 7.4,51.9 -12.4,69.1 z"
             id="path1383" />
          <path
             class="st8"
             d="m 1495.8,2618.4 v 0 l -432.3,88.8 v -9 c 0,-43.1 30.3,-80.2 72.5,-88.9 l 278.5,-57.2 c 42,-8.6 81.3,23.5 81.3,66.3 z"
             id="path1385" />
          <path
             class="st3"
             d="m 1446.8,3171 v -433.1 c 0,-35.9 -32.9,-62.7 -68.1,-55.5 l -271.5,55.7 c -32.3,6.6 -58.9,29.2 -70.7,60 L 893.2,3171"
             id="path1387" />
          <path
             class="st3"
             d="m 760.5,2269.9 211.1,393.3 c 18.1,33.7 56.1,51.5 93.6,43.8 l 431.6,-88.6"
             id="path1389" />
        </g>
        <g
           id="BOOKS">
          <rect
             x="1283.8"
             y="2297.2"
             class="st4"
             width="365.29999"
             height="48.799999"
             id="rect1392" />
          <g
             id="g1404">
            <path
               class="st7"
               d="m 1582.5,2244.2 c 4.4,4.1 7.1,11.5 7.1,17.7 0,12.4 -10.8,25.1 -24.2,25.1 h -333.2 v 0 c 0,5.8 4.7,10.5 10.5,10.5 h 402.1 c 10.8,0 20.5,-4 27.6,-10.6 7.1,-6.5 11.4,-15.6 11.4,-25.6 0,-20 -17.5,-36.1 -39,-36.1 h -402.1 c -5.8,0 -10.5,4.7 -10.5,10.5 v 1.9 h 333.2 c 6.7,0.1 12.7,2.6 17.1,6.6 z"
               id="path1394" />
            <path
               class="st7"
               d="m 1256.3,2237.7 v 48.4 h -24 v 4 h 334.3 c 3.7,0 7.3,-0.7 10.5,-2 0,0 0,0 0,0 3.6,-1.4 6.8,-3.6 9.4,-6.2 5.1,-5.1 8.3,-12.2 8.3,-20 0,-15.6 -12.7,-28.2 -28.2,-28.2 h -334.3 v 4 z"
               id="path1396" />
            <path
               class="st14"
               d="m 1247,2237.7 v 48.4 h 318.4 c 13.4,0 24.2,-10.8 24.2,-24.2 0,-6.7 -2.7,-12.7 -7.1,-17.1 -4.4,-4.4 -10.4,-7.1 -17.1,-7.1 z"
               id="path1398" />
            <line
               class="st15"
               x1="1247"
               y1="2237.7"
               x2="1247"
               y2="2286.1001"
               id="line1400" />
            <path
               class="st8"
               d="m 1520.9,2272 v 40.4 h 27.9 v -35.2 c 0,-8.4 6.8,-15.2 15.2,-15.2 h 12.4 v -5.2 H 1536 c -8.2,0 -15.1,6.8 -15.1,15.2 z"
               id="path1402" />
          </g>
        </g>
        <g
           id="TABLE">
          <path
             class="st3"
             d="m 1078.7,2387.8 c 0,-21.3 17.3,-38.6 38.6,-38.6 h 759 c 21.3,0 38.6,17.3 38.6,38.6"
             id="path1407" />
          <path
             class="st3"
             d="m 1915.5,3171 -214.3,-746.4 c -9.5,-33 -42.2,-56 -79.6,-56 h -249.7 c -37.4,0 -70.1,23 -79.6,56 L 1078.1,3171"
             id="path1409" />
        </g>
      </g>
      <g
         id="CHARACTER">
        <g
           id="SHOES">
          <g
             id="g1421">
            <path
               class="st16"
               d="m 2095.4,3041.8 v 108.8 c 0,11.3 9.1,20.4 20.4,20.4 h 272 c 0,0 1.6,-50.5 -39.8,-64.6 -70.3,-23.9 -103.1,-64.6 -103.1,-64.6 z"
               id="path1413" />
            <path
               class="st17"
               d="m 2246.7,3097.5 c 11.1,-3.1 51.1,-25.2 37.4,-38.9 -6.5,-6.5 -22.1,0 -22.1,0"
               id="path1415" />
            <path
               class="st17"
               d="m 2287.7,3112.5 c 11.1,-3.1 49.5,-27.8 34.4,-39.9 -11.4,-9.2 -28.5,8.6 -28.5,8.6"
               id="path1417" />
            <path
               class="st7"
               d="m 2253.3,3050.6 -157.9,49.1 v -57.9 H 2245 c 0,0 2.7,3.4 8.3,8.8 z"
               id="path1419" />
          </g>
          <g
             id="g1431">
            <path
               class="st16"
               d="m 2436.4,3041.8 v 108.8 c 0,11.3 9.1,20.4 20.4,20.4 h 272 c 0,0 1.6,-50.5 -39.8,-64.6 -70.3,-23.9 -103.1,-64.6 -103.1,-64.6 z"
               id="path1423" />
            <path
               class="st17"
               d="m 2587.7,3097.5 c 11.1,-3.1 51.1,-25.2 37.4,-38.9 -6.5,-6.5 -22.1,0 -22.1,0"
               id="path1425" />
            <path
               class="st17"
               d="m 2628.7,3112.5 c 11.1,-3.1 49.5,-27.8 34.4,-39.9 -11.4,-9.2 -28.5,8.6 -28.5,8.6"
               id="path1427" />
            <path
               class="st7"
               d="m 2594.3,3050.6 -157.9,49.1 v -57.9 H 2586 c 0,0 2.7,3.4 8.3,8.8 z"
               id="path1429" />
          </g>
        </g>
        <g
           id="LEGS">
          <polygon
             class="st18"
             points="2522.3,1958.8 2168.9,1958.8 2070.4,2990 2276.4,2990 2379.9,2490.3 2422.2,2596.8 2422.2,2990 2636.7,2990 2636.7,2549.1 "
             id="polygon1434" />
          <line
             class="st19"
             x1="2276.2"
             y1="2206.5"
             x2="2180.3999"
             y2="2990"
             id="line1436" />
          <polyline
             class="st19"
             points="2525.7,2990 2525.7,2549.1 2391.3,2008.8   "
             id="polyline1438" />
          <path
             class="st20"
             d="m 2419.2,2596.8 -128.4,-372.9 c -4.4,-12.8 -16.5,-21.4 -30.1,-21.4"
             id="path1440" />
          <polygon
             class="st5"
             points="2152.6,2129.3 2168.9,1958.8 2522.3,1958.8 2532.4,2011.2 "
             id="polygon1442" />
          <path
             class="st5"
             d="m 2637.1,3041.8 h -215.7 c -8.1,0 -14.7,-6.6 -14.7,-14.7 v -22.4 c 0,-8.1 6.6,-14.7 14.7,-14.7 h 215.7 c 8.1,0 14.7,6.6 14.7,14.7 v 22.4 c -0.1,8.1 -6.6,14.7 -14.7,14.7 z"
             id="path1444" />
          <path
             class="st5"
             d="m 2280.1,3041.8 h -215.7 c -8.1,0 -14.7,-6.6 -14.7,-14.7 v -22.4 c 0,-8.1 6.6,-14.7 14.7,-14.7 h 215.7 c 8.1,0 14.7,6.6 14.7,14.7 v 22.4 c -0.1,8.1 -6.6,14.7 -14.7,14.7 z"
             id="path1446" />
        </g>
        <g
           id="BOOK">
          <path
             class="st4"
             d="m 2855.8,1989 67.6,252.9 -337,90.1 -67.7,-253.1 c -2.1,-7.9 -7.2,-14.1 -13.7,-17.9 -6.5,-3.8 -14.5,-5.1 -22.4,-3 -15.7,4.2 -25.1,20.4 -20.9,36.1 l 67.7,253.1 -7.4,2 -67.6,-252.9 c -5.4,-20.1 6.2,-40.7 26,-46.7 0.4,-0.1 0.8,-0.2 1.2,-0.3 l 327.2,-87.5 c 20.5,-5.4 41.5,6.8 47,27.2 z"
             id="path1449" />
          <path
             class="st5"
             d="m 2526.2,2077.2 67.6,252.9 -7.4,2 -67.7,-253.1 c -2.1,-7.9 -7.2,-14.1 -13.7,-17.9 -6.5,-3.8 -14.5,-5.1 -22.4,-3 -15.7,4.2 -25.1,20.4 -20.9,36.1 l 67.7,253.1 -7.4,2 -67.6,-252.9 c -5.4,-20.1 6.2,-40.7 26,-46.7 20.1,-4.7 40.4,7.4 45.8,27.5 z"
             id="path1451" />
          <path
             class="st14"
             d="m 2518.7,2078.9 63.5,237.6 -57,15.2 -63.5,-237.6 c -4.2,-15.7 5.1,-31.9 20.9,-36.1 7.9,-2.1 15.9,-0.8 22.4,3 6.5,3.8 11.6,10 13.7,17.9 z"
             id="path1453" />
        </g>
        <g
           id="SHIRT">
          <path
             class="st2"
             d="m 2856.8,2123 -153.3,52.8 -121,-217 h -469 c -79.7,0 -139.3,-73.3 -123,-151.3 l 48.8,-234.4 c 15.3,-73.4 80,-126 154.9,-126 h 320.7 c 77.7,0 143.9,56.4 156.2,133.1 l 48.3,228.2 z"
             id="path1456" />
          <path
             class="st14"
             d="m 2088.5,1956.3 c -55.2,-11.1 -96.2,-58.1 -100.4,-113.5 4.2,-2.9 8.9,-5.4 13.9,-7.2 36.3,-13.4 77.8,8.6 92.9,49.1 9.3,25.4 6.1,52 -6.4,71.6 z"
             id="path1458" />
        </g>
        <g
           id="HEAD">
          <polygon
             id="NECK"
             class="st21"
             points="2437.7,1306.5 2437.7,1447.2 2282.4,1447.2 2318.2,1353.6 " />
          <path
             id="HAIR"
             class="st5"
             d="m 2473.4,1247.3 c -0.1,0 -0.3,0.1 -0.4,0.1 v 0 0 l -46.1,12.2 c -16.5,4.4 -29.2,16.6 -34.6,32 h -17.7 c -11.2,0 -20.3,9.1 -20.3,20.3 v 0.3 c 0,10.6 8.1,19.3 18.5,20.2 -0.1,0.1 -0.1,0.1 -0.1,0.1 0,0 -8.2,39 -56.1,25.9 0,0 1.9,-102.6 3.9,-134.5 1.7,-26.3 141.2,-76.1 154.1,-54.9 11.4,18.8 -1.8,27.6 -13,31.5 19.8,-4.2 57.2,-9.8 61,6.9 4.4,19.4 -35.1,36.2 -49.2,39.9 z" />
          <g
             id="HEAD_1_">
            <path
               class="st21"
               d="m 2482.4,1319.2 h -4.9 l 1.4,24 c 1,17.2 -12.8,31.8 -30,31.8 h -21.6 c -20.8,0 -37.7,-16.9 -37.7,-37.7 v -4.7 h -14.9 c -11.2,0 -20.3,-9.1 -20.3,-20.3 v -0.3 c 0,-11.2 9.1,-20.3 20.3,-20.3 h 17.7 c 5.4,-15.4 18.1,-27.7 34.6,-32 l 46.1,-12.2 v 0 l 15.8,63.3 c 1.6,4 -2.2,8.4 -6.5,8.4 z"
               id="path1463" />
            <g
               id="g1473">
              <path
                 class="st22"
                 d="m 2394.3,1339.2 c -2.1,22 19.9,37.7 40.7,37.7"
                 id="path1465" />
              <path
                 class="st22"
                 d="m 2386.2,1315.7 c 0,-7.8 -6.3,-14.1 -14.1,-14.1"
                 id="path1467" />
              <ellipse
                 class="st5"
                 cx="2465.3999"
                 cy="1293.7"
                 rx="3.7"
                 ry="7.6999998"
                 id="ellipse1469" />
              <path
                 class="st22"
                 d="m 2449.4,1277.5 c 0,0 12.3,-9.4 29.9,-9.4"
                 id="path1471" />
            </g>
          </g>
        </g>
        <g
           id="BACKPACK">
          <path
             class="st16"
             d="m 2401.8,2022.9 c 0,0 122.5,5.3 165.6,-93 l -22.8,-41.7 -68.1,26.2 z"
             id="path1477" />
          <path
             class="st23"
             d="m 2499.9,1421.4 c -5.9,0.5 -11.3,3.1 -15.3,7.1 -4.4,4.4 -7.2,10.5 -7.2,17.3 v 492.7 c 0,47 -38.1,85.1 -85.1,85.1 h -188.9 c -50.8,0 -90,-44.1 -84.6,-94.2 v -0.1 l 68,-467.7 c 3.4,-23.1 23.1,-40.2 46.5,-40.2 z"
             id="path1479" />
          <path
             class="st16"
             d="m 2480.9,1421.4 c -5.9,0.5 -11.3,3.1 -15.3,7.1 -3.7,3.7 -6.2,8.5 -6.9,13.9 -0.1,1.1 -0.2,2.2 -0.2,3.3 l -4,37.7 -48,455 c 0,47 -38.1,85.1 -85.1,85.1 h -117.9 c -50.8,0 -90,-44.1 -84.6,-94.2 v -0.1 l 30.7,-211.4 37.3,-256.3 c 0.3,-2.2 0.8,-4.4 1.4,-6.6 5.8,-19.7 24,-33.6 45,-33.6 h 247.6 z"
             id="path1481" />
          <path
             class="st8"
             d="m 2438.8,1519.5 -17.9,134.3 c -5.9,27.5 -27.3,42.2 -58.3,47.2 l -212,30.8 30.9,-212.4 h 257.3 z"
             id="path1483" />
          <path
             class="st23"
             d="m 2473.3,1421.4 h -5.3 c -9.6,-0.1 -18,6.7 -19.9,16.2 l -31.2,201.3 c -5.9,27.5 -30.2,47.2 -58.3,47.2 h -195.1 c -23.6,0 -41.2,-21.8 -36.1,-44.9 l 37.6,-170.8 c 6.3,-28.6 31.7,-49 61,-49 z"
             id="path1485" />
          <path
             class="st16"
             d="m 2312.5,1742.1 49.7,-303.9 c 1,-6.1 6.3,-10.7 12.5,-10.7 v 0 c 7.8,0 13.8,7 12.5,14.8 l -49.7,303.9 c -1,6.1 -6.3,10.7 -12.5,10.7 v 0 c -7.8,0 -13.8,-7 -12.5,-14.8 z"
             id="path1487" />
          <path
             class="st16"
             d="m 2201.4,1742.1 49.7,-303.9 c 1,-6.1 6.3,-10.7 12.5,-10.7 v 0 c 7.8,0 13.8,7 12.5,14.8 l -49.7,303.9 c -1,6.1 -6.3,10.7 -12.5,10.7 v 0 c -7.8,0 -13.8,-7 -12.5,-14.8 z"
             id="path1489" />
          <path
             class="st16"
             d="m 2526.4,1447.3 -48.9,0.2 v -1.7 c 0,-6.8 2.7,-12.9 7.2,-17.3 4,-4 9.3,-6.6 15.3,-7.1 h 4 c 12.3,1 22,11.4 22.4,25.9 z"
             id="path1491" />
        </g>
        <g
           id="HAND">
          <g
             id="g1502">
            <path
               class="st21"
               d="m 2838.5,2129.3 41.2,106.3 c 6.6,17.1 -3,36.1 -20.6,41 l -90.5,24.8 c -5.5,1.5 -11.3,0.2 -15.6,-3.5 l -9.2,-8 18.8,-5 c 8.3,-2.2 13.9,-9.9 13.5,-18.5 l -2.1,-21.2 c -0.4,-9.5 -8.1,-17.1 -17.6,-17.4 h 1 c -11.5,-0.4 -22.7,-7.5 -27.2,-18.1 l -14.4,-38.3 z"
               id="path1494" />
            <path
               class="st24"
               d="m 2745.7,2292 14.8,-4 c 8.3,-2.2 13.9,-8.9 13.5,-17.5 l -1.1,-23.2 c -0.4,-9.5 -8.1,-17.1 -17.6,-17.4 v 0 c -11.5,-0.4 -21.7,-7.5 -26.2,-18.1 l -15.4,-36.3"
               id="path1496" />
            <path
               class="st24"
               d="m 2794.1,2291.8 c 10.6,-2.8 17.8,-12.6 17.3,-23.6 l -1.4,-29.6"
               id="path1498" />
            <path
               class="st24"
               d="m 2832.4,2281.9 c 10.6,-2.8 17.8,-12.6 17.3,-23.6 l -1.4,-29.6"
               id="path1500" />
          </g>
          <path
             class="st20"
             d="m 2489.8,1686.1 24.2,126.6 c 4.1,21.6 11.7,42.5 22.4,61.7 l 167,301.4 153.3,-52.8"
             id="path1504" />
          <path
             class="st14"
             d="m 2591.1,1973.2 -54.7,-98.8 c -9.2,-16.7 -16.1,-34.5 -20.5,-53 5.2,-1.7 10.6,-2.9 16.3,-3.4 43.2,-3.8 81.5,32.5 85.6,81 2.4,29.4 -8.3,56.5 -26.7,74.2 z"
             id="path1506" />
        </g>
      </g>
    </g>
  </g>
  <style
     type="text/css"
     id="style1200">
	.st0{fill:#D0F0E4;}
	.st1{fill:none;stroke:#FFCF2D;stroke-width:6;stroke-miterlimit:10;}
	.st2{fill:#FFCF2D;stroke:#FFFFFF;stroke-width:6;stroke-miterlimit:10;}
	.st3{fill:none;stroke:#9A3B82;stroke-width:6;stroke-linecap:round;stroke-miterlimit:10;}
	.st4{fill:#66B0F0;}
	.st5{fill:#9A3B82;}
	.st6{fill:#FFFFFF;stroke:#FFCF2D;stroke-width:6;stroke-miterlimit:10;}
	.st7{fill:#FE5244;}
	.st8{fill:#FFCF2D;}
	.st9{fill:none;stroke:#FFCF2D;stroke-width:6;stroke-linecap:round;stroke-miterlimit:10;}
	.st10{fill:#FFFFFF;stroke:#9A3B82;stroke-width:6;stroke-linecap:round;stroke-miterlimit:10;}
	.st11{fill:#FFFFFF;stroke:#3FB1B5;stroke-width:6;stroke-miterlimit:10;}
	.st12{fill:none;stroke:#3FB1B5;stroke-width:6;stroke-miterlimit:10;}
	.st13{fill:none;stroke:#9A3B82;stroke-width:6;stroke-linecap:round;stroke-linejoin:round;stroke-miterlimit:10;}
	.st14{fill:#FFFFFF;}
	.st15{fill:none;stroke:#FE5244;stroke-width:5;stroke-miterlimit:10;}
	.st16{fill:#FFFFFF;stroke:#FE5244;stroke-width:6;stroke-miterlimit:10;}
	.st17{fill:none;stroke:#FE5244;stroke-width:6;stroke-miterlimit:10;}
	.st18{fill:#3FB1B5;}
	.st19{fill:none;stroke:#9A3B82;stroke-width:6;stroke-miterlimit:10;}
	.st20{fill:none;stroke:#FFFFFF;stroke-width:6;stroke-miterlimit:10;}
	.st21{fill:#E57281;}
	.st22{fill:none;stroke:#9A3B82;stroke-width:5;stroke-linecap:round;stroke-miterlimit:10;}
	.st23{fill:#FE5244;stroke:#FE5244;stroke-width:6;stroke-miterlimit:10;}
	.st24{fill:none;stroke:#FFFFFF;stroke-width:6;stroke-linecap:round;stroke-miterlimit:10;}
</style>
</svg>
