<?xml version="1.0" encoding="UTF-8" standalone="no"?>
<!-- Created with Inkscape (http://www.inkscape.org/) -->

<svg
   width="2560"
   height="1440"
   viewBox="0 0 677.33333 381"
   version="1.1"
   id="svg5"
   inkscape:version="1.1 (1:1.1+202105261517+ce6663b3b7)"
   sodipodi:docname="Education.svg"
   xmlns:inkscape="http://www.inkscape.org/namespaces/inkscape"
   xmlns:sodipodi="http://sodipodi.sourceforge.net/DTD/sodipodi-0.dtd"
   xmlns="http://www.w3.org/2000/svg"
   xmlns:svg="http://www.w3.org/2000/svg">
  <sodipodi:namedview
     id="namedview7"
     pagecolor="#ffffff"
     bordercolor="#666666"
     borderopacity="1.0"
     inkscape:pageshadow="2"
     inkscape:pageopacity="0.0"
     inkscape:pagecheckerboard="0"
     inkscape:document-units="px"
     showgrid="false"
     inkscape:zoom="0.27695015"
     inkscape:cx="2184.5086"
     inkscape:cy="1453.3301"
     inkscape:window-width="1366"
     inkscape:window-height="704"
     inkscape:window-x="0"
     inkscape:window-y="27"
     inkscape:window-maximized="1"
     inkscape:current-layer="layer1" />
  <defs
     id="defs2" />
  <g
     inkscape:label="Layer 1"
     inkscape:groupmode="layer"
     id="layer1">
    <rect
       style="fill:#eff0fe;fill-opacity:1;fill-rule:evenodd;stroke:#000000;stroke-width:0;stroke-linejoin:round;paint-order:markers fill stroke"
       id="rect2043"
       width="844.17535"
       height="556.40216"
       x="-757.20044"
       y="-61.576645"
       ry="99.987267"
       transform="scale(-1,1)" />
    <g
       id="g1074"
       transform="matrix(0.12953226,0,0,0.12953226,76.271477,-39.981784)">
      <g
         id="GRASS" />
      <g
         id="_x32__CHARACTER">
        <g
           id="DRESS_1_" />
      </g>
      <g
         id="_x31__CHARACTER"
         transform="matrix(-0.99153791,0,0,1.0220452,5123.2314,-39.601426)">
        <g
           id="DRESS">
          <path
             class="st15"
             d="m 2349.9,2154.3 c -10.5,-38.3 -183.9,-2.4 -374.9,67.1 -182.7,66.5 -331.2,156.2 -332.8,192.3 L 1542,1682.8 c -1.5,-10.3 -10.3,-17.9 -20.7,-17.9 -5.8,0 -11,2.3 -14.8,6.1 -3.8,3.8 -6.1,9 -6.1,14.8 v 624.2 0 c -1.2,-17.1 -45.3,-30.8 -99.5,-30.8 -54.2,0 -98.2,13.7 -99.5,30.8 v 0 -701.4 c 0,-59.2 31,-114 81.6,-144.6 l 65.7,-39.7 270.6,-163.4 251.7,-153.2 V 846.2 c 0,11.2 46.3,20.2 100.9,20.2 54.5,0 100.9,-8.9 100.9,-20.2 v 283.5 c 0,62.8 -30.7,122.1 -79.7,161.3 L 1940,1400.4 c -26.1,18.6 -32.4,54.8 -14.2,81.2 101.5,146.9 413.4,575.6 424,669.9 0.1,0.9 0.1,1.9 0.1,2.8 z"
             id="path782" />
          <line
             class="st9"
             x1="1968"
             y1="1085.3"
             x2="1968"
             y2="1162.3"
             id="line784" />
          <polygon
             class="st9"
             points="1647.2,1303.7 1664.2,1462.2 1520.8,1379.3 1448.9,1424.3 1782.6,1647.5 1719.5,1260.9 "
             id="polygon786" />
          <path
             class="st16"
             d="m 2339.2,2163.9 c -12,-33.1 -171,5.1 -362.1,74.6 -191.1,69.5 -337.8,157.4 -325.7,190.5 12,33.1 178.3,-1.1 369.4,-70.6 191.1,-69.5 330.5,-161.4 318.4,-194.5 z"
             id="path788" />
        </g>
        <g
           id="LEGS">
          <g
             id="RIGHT_LEG">
            <path
               class="st17"
               d="m 1904,2854.4 -11,19.2 -12.2,21.4 c -105.5,13.2 -124.1,-55.8 -124.1,-55.8 l 15.9,-31.6 c 42.6,26.2 96.6,40.1 131.4,46.8 z"
               id="path791" />
            <path
               class="st5"
               d="m 2284,2352.3 c -75,129.3 -344.7,507.7 -344.7,507.7 0,0 -14.1,-1.5 -35.3,-5.6 -34.8,-6.8 -88.8,-20.6 -131.5,-46.8 -9.9,-6.1 -19.1,-12.8 -27.4,-20.3 l 195.5,-397 49.4,-104.1 27.4,-57.8 c 3.3,-1.2 6.6,-2.3 9.8,-3.4 1.6,-0.6 3.2,-1.1 4.9,-1.7 4.9,-1.7 9.7,-3.3 14.5,-4.9 4,-1.3 7.9,-2.6 11.8,-4 11.9,-4 23.6,-7.7 35,-11.3 76.6,-24.2 142.1,-40.5 186.3,-45.5 9.8,13.7 21,33.4 27.4,58.1 9.3,36.1 8.2,82.7 -23.1,136.6 z"
               id="path793" />
            <g
               id="g807">
              <path
                 class="st11"
                 d="m 1956.6,3149.5 c -3.4,14.9 -21.9,20.2 -32.7,9.4 l -241.7,-240.9 75.6,-78.9 c 0,0 17.5,68.9 123.1,55.8 85.3,128.8 85.1,213.1 75.7,254.6 z"
                 id="path795" />
              <path
                 class="st8"
                 d="m 1946.7,3164.7 c -16.4,6.3 -34.9,3 -48.2,-8.7 l -126.2,-110.9 c -3.1,-2.8 -3.5,-7.5 -0.9,-10.8 2.5,-3.1 2.3,-7.7 -0.6,-10.5 l -10.3,-10 c -2.8,-2.8 -7.3,-2.9 -10.3,-0.3 l -2.4,2 c -2.9,2.5 -7.1,2.5 -9.9,0 l -67.8,-58.9 c -8.8,-7.6 -9.1,-21.2 -0.8,-29.3 l 11.8,-11.4 243.2,245.5 c 7,7 17.1,7.3 24.3,2.6 z"
                 id="path797" />
              <g
                 id="g805">
                <path
                   class="st18"
                   d="m 1913.8,2927.1 c 0,0 20.5,18.2 -28.5,40.3"
                   id="path799" />
                <path
                   class="st18"
                   d="m 1926.7,2949 c 0,0 20.5,18.2 -28.5,40.3"
                   id="path801" />
                <path
                   class="st18"
                   d="m 1939.6,2970.9 c 0,0 20.5,18.2 -28.5,40.3"
                   id="path803" />
              </g>
            </g>
            <path
               class="st7"
               d="m 2307.1,2215.7 c -65,-0.1 -131.6,11.2 -195.8,29 -5.1,-18 -12.3,-32.3 -17.9,-41.6 76.6,-24.2 142.1,-40.5 186.3,-45.5 9.9,13.8 21.1,33.5 27.4,58.1 z"
               id="path809" />
          </g>
          <g
             id="LEFT_LEG">
            <path
               class="st17"
               d="m 1629.3,2844.3 -19.3,24.7 -15.2,19.4 c -106.3,-2.1 -114.8,-73 -114.8,-73 l 23.1,-33.1 v 0 c 40.1,32.2 94.3,52.2 126.2,62 z"
               id="path812" />
            <path
               class="st5"
               d="m 2113.5,2325.6 c -5.8,24.7 -18.2,51.3 -41,78.7 -93.6,112.7 -416.8,447.3 -416.8,447.3 0,0 -126.2,-28.4 -180.1,-96.4 l 217.6,-309.1 c 0,0 0,0 0,0 l 80.3,-114.1 c 55.4,-29.5 125.8,-60.8 203.6,-89.2 40.6,-14.8 79.7,-28.1 116.3,-39.7 5.5,9.3 12.8,23.7 17.9,41.6 6.4,22.2 9.5,50 2.2,80.9 z"
               id="path814" />
            <g
               id="g828">
              <path
                 class="st11"
                 d="m 1633.2,3151.2 c -5.5,14.3 -24.5,16.9 -33.7,4.6 l -204.7,-273.1 86.1,-67.3 c 0,0 7.4,70.9 113.8,73 66.1,139.7 53.8,223.1 38.5,262.8 z"
                 id="path816" />
              <path
                 class="st8"
                 d="m 1621.3,3164 c -17.1,3.9 -35,-2.1 -46.4,-15.4 l -109,-127.6 c -2.7,-3.2 -2.4,-7.9 0.6,-10.8 3,-2.7 3.3,-7.3 0.9,-10.5 l -8.8,-11.3 c -2.4,-3.1 -6.8,-3.9 -10.2,-1.8 l -2.6,1.7 c -3.2,2 -7.3,1.4 -9.8,-1.4 l -59,-67.7 c -7.6,-8.8 -6,-22.2 3.4,-29 l 13.3,-9.6 205.7,276.9 c 5.9,7.9 15.9,9.6 23.7,6.1 z"
                 id="path818" />
              <g
                 id="g826">
                <path
                   class="st18"
                   d="m 1624.9,2925.6 c 0,0 17.7,20.9 -34,35.8"
                   id="path820" />
                <path
                   class="st18"
                   d="m 1636.6,2949.1 c 0,0 17.7,20.9 -34,35.8"
                   id="path822" />
                <path
                   class="st18"
                   d="m 1646.2,2972.6 c 0,0 17.7,20.9 -34,35.8"
                   id="path824" />
              </g>
            </g>
            <path
               class="st7"
               d="m 2111.4,2244.7 c -41.8,11.6 -82.6,25.9 -121.3,41.4 -167.1,67.3 -295.2,158.7 -296.8,159.8 l 80.3,-114.1 c 55.4,-29.5 125.8,-60.8 203.6,-89.2 13.6,-4.9 27,-9.7 40.3,-14.4 3.3,-1.2 6.6,-2.3 9.8,-3.4 1.6,-0.6 3.2,-1.1 4.9,-1.7 4.9,-1.7 9.7,-3.3 14.5,-4.9 4,-1.3 7.9,-2.6 11.8,-4 11.9,-4 23.6,-7.7 35,-11.3 5.5,9.6 12.7,23.9 17.9,41.8 z"
               id="path830" />
          </g>
        </g>
        <g
           id="ARMS">
          <g
             id="LEFT_ARM">
            <path
               class="st10"
               d="m 1498.2,2323.5 c 0,17.4 -43.5,31.6 -97.2,31.6 -53.7,0 -97.2,-14.1 -97.2,-31.6 0,-0.2 0,-0.5 0,-0.7 1.2,-17.1 44.3,-30.8 97.2,-30.8 52.9,0 96,13.7 97.2,30.8 0,0.2 0,0.5 0,0.7 z"
               id="path834" />
            <path
               class="st17"
               d="m 1459,2300 v 82.1 c 0,26.6 -14.7,50.9 -38.1,63.4 l -39.9,21.2 c -9.7,5.2 -20.6,7.9 -31.6,7.9 -4.7,0 -7.9,-3.9 -7.9,-8 0,-1.7 0.6,-3.5 1.8,-5 l 14.9,-18 c 2.1,-2.5 0.3,-6.2 -2.9,-6.2 h -87.7 l -16,20.2 c -8.5,10.7 -21.5,17 -35.1,17 h -4.6 c -5.7,0 -9.2,-6.1 -6.4,-11 l 1.8,-3.3 c -5.5,2.3 -11.5,3.6 -17.6,3.6 h -4.6 c -5.7,0 -9.2,-6.1 -6.4,-11 l 35.9,-39.6 24.9,-9.8 v 0.1 l 123.7,-48.6 v 0 -58.4 c 11.7,-1.5 24.4,-2.4 37.8,-2.4 21.7,-0.1 41.7,2.1 58,5.8 z"
               id="path836" />
            <line
               class="st19"
               x1="1236.3"
               y1="2407.7"
               x2="1206.3"
               y2="2459.2"
               id="line838" />
            <path
               class="st19"
               d="m 1350.6,2452.6 18.4,-22.5 c 3.6,-4.4 0.5,-10.9 -5.2,-10.9"
               id="path840" />
            <path
               class="st7"
               d="m 1459,2300 v 51.3 c -16.3,3.7 -36.3,5.9 -58,5.9 -13.4,0 -26.1,-0.8 -37.8,-2.4 v -58.4 c 11.7,-1.5 24.4,-2.4 37.8,-2.4 21.6,0.1 41.7,2.3 58,6 z"
               id="path842" />
          </g>
          <g
             id="RIGHT_ARM">
            <path
               class="st16"
               d="m 2170.7,835.5 c 0,11.3 -44.2,20.2 -98.7,20.2 -54.5,0 -98.7,-8.9 -98.7,-20.2 0,-11.3 44.2,-20.6 98.7,-20.6 54.5,0 98.7,9.4 98.7,20.6 z"
               id="path845" />
            <path
               class="st17"
               d="m 2041.9,852 c -12.2,-0.8 -23.3,-2 -32.9,-3.7 v -97.1 c 0,-3.2 0.7,-6.4 2.1,-9.3 l 31.4,-64.8 c 5.8,-12 18,-19.6 31.3,-19.6 h 38.5 l -84.2,154.9 c -0.4,0.7 -0.7,1.4 -1,2.1 -4.9,12.1 1.2,27.6 14.8,37.5 z"
               id="path847" />
            <path
               class="st7"
               d="m 2114.3,812.7 12.4,-21.6 v 58.6 c -10.2,1.3 -21.7,2.4 -34,2.9 z"
               id="path849" />
            <g
               id="g861">
              <g
                 id="g855">
                <path
                   class="st11"
                   d="m 2295.7,473.6 -205,377.2 c -7.6,14 -28.4,17.3 -46.6,7.4 -18.2,-9.9 -26.7,-29.2 -19.1,-43.1 l 205,-377.2 z"
                   id="path851" />
                <ellipse
                   transform="matrix(0.4775,-0.8786,0.8786,0.4775,781.8137,2226.3313)"
                   class="st11"
                   cx="2262.8"
                   cy="455.79999"
                   rx="28.799999"
                   ry="37.400002"
                   id="ellipse853" />
              </g>
              <path
                 class="st8"
                 d="m 2170.1,612 96.9,-80.2 -1.5,29.2 31,7.7 -74,45.7 c 56.8,-12.2 158.8,-29.4 174.3,0.6 6.1,11.8 -5.4,35.9 -13.1,53.2 -4.8,36.5 186.6,-8.7 188.8,-9.2 l -29.5,27.3 29.5,16.8 c 0,0 -160.6,30.6 -202,22.2 -23.4,-4.8 -4.8,-36.2 11.5,-59.2 5,-17.7 -34.8,-23.5 -200.3,-5.5 z"
                 id="path857" />
              <circle
                 class="st11"
                 cx="2171.5"
                 cy="631.59998"
                 r="28.6"
                 id="circle859" />
            </g>
            <path
               class="st17"
               d="m 2193.9,727.4 -9.2,21.6 -10.8,25.2 -5.8,13.7 -8.9,20.9 c -0.2,0.6 -0.5,1.1 -0.8,1.7 0,0 0,0.1 -0.1,0.1 -2.9,4.9 -8.4,8 -14.4,8 h -70.6 c -8.5,0 -14.4,-8.1 -11.2,-15.6 l 5.1,-12 11.3,-26.5 9.7,-22.8 8.5,-20.1 c 2.5,-5.9 8.6,-9.7 15.3,-9.7 h 70.6 c 8.7,-0.1 14.5,8 11.3,15.5 z"
               id="path863" />
            <g
               id="g871">
              <path
                 class="st19"
                 d="m 2090.7,741.6 c 2.9,-3.3 7.2,-5.2 11.8,-5.2 h 67.4 c 7.1,0 12.2,6.1 11.5,12.6"
                 id="path865" />
              <path
                 class="st19"
                 d="m 2081.5,764.5 c 2.9,-2.9 6.9,-4.6 11.2,-4.6 h 67.4 c 7.7,0 13.1,7.2 11.1,14.3"
                 id="path867" />
              <path
                 class="st19"
                 d="m 2070.9,790.9 c 2.9,-2.7 6.8,-4.3 10.9,-4.3 h 67.4 c 8,0 13.5,7.7 10.9,15 0,0 0,0 0,0"
                 id="path869" />
            </g>
            <path
               class="st17"
               d="m 2151,657.4 v 1.8 c 0,18.3 -14.8,33.2 -33.2,33.2 H 2083 v -35 z"
               id="path873" />
          </g>
        </g>
        <g
           id="HEAD">
          <g
             id="CAP_1_">
            <path
               class="st4"
               d="m 1305.9,1439.7 c -3.2,4.8 -6.5,9.3 -9.8,13.4 -3.6,-0.9 -7.1,-2.4 -10.3,-4.6 -3.2,-2.2 -5.9,-4.8 -8.1,-7.9 2.6,-4.5 5.5,-9.3 8.8,-14.1 16.2,-24 33.6,-40.5 39,-36.9 5.4,3.6 -3.4,26.1 -19.6,50.1 z"
               id="path877" />
            <path
               class="st15"
               d="m 1453.3,1079.4 -124.9,184.4 c -1.5,2.2 0.6,4.9 3.1,4.2 l 59.7,-19.2 c -7.3,8.7 -11.8,20 -11.8,32.2 v 58.1 c 0,22.7 -18.1,41.2 -40.7,41.8 -1.4,-2.6 -4.2,-4.4 -7.5,-4.4 -2.3,0 -4.4,0.9 -6,2.5 -1.6,1.6 -2.5,3.7 -2.4,6 0,4.6 3.8,8.4 8.5,8.4 v 0 c 4.2,0 7.7,-3.2 8.3,-7.2 25,-1.1 45.1,-21.8 45.1,-47.1 V 1281 c 0,-14.6 7.2,-27.9 18,-35.9 l 120.1,-38.6 154.2,-127.1 z M 1333.5,1387 c -0.6,0.6 -1.4,0.9 -2.2,0.9 -0.8,0 -1.6,-0.3 -2.2,-0.9 -0.6,-0.6 -0.9,-1.4 -0.9,-2.2 0,-0.8 0.3,-1.6 0.9,-2.2 0.6,-0.6 1.4,-0.9 2.2,-0.9 0,0 0,0 0,0 0.9,0 1.6,0.3 2.2,0.9 0.6,0.6 0.9,1.3 0.9,2.2 0.1,0.9 -0.3,1.6 -0.9,2.2 z"
               id="path879" />
            <g
               id="g883">
              <path
                 class="st15"
                 d="m 1317.5,1263.4 c -0.5,0 -1,-0.1 -1.5,-0.5 -1.2,-0.8 -1.5,-2.5 -0.7,-3.7 L 1445.5,1067 h 235.8 c 1.5,0 2.7,1.2 2.7,2.7 0,1.5 -1.2,2.7 -2.7,2.7 h -233 l -128.6,189.8 c -0.5,0.8 -1.3,1.2 -2.2,1.2 z"
                 id="path881" />
            </g>
            <g
               id="g887">
              <path
                 class="st20"
                 d="m 1449.1,1232.4 -15,-6.8 0.8,-2.3 c 0.3,-0.9 7.6,-22.1 25.6,-44.6 16.7,-20.9 46,-46.6 91.1,-51 l 2.6,-0.2 2.6,18.9 -5.3,0.7 -1.9,-13.8 c -41.8,4.8 -69.2,29 -84.9,48.7 -14.1,17.6 -21.5,34.8 -23.8,40.8 l 10.5,4.8 z"
                 id="path885" />
            </g>
          </g>
          <g
             id="HEAD_4_">
            <g
               id="NECK_1_">
              <polygon
                 class="st17"
                 points="1594.9,1266.7 1645.1,1304.8 1660.3,1456.2 1525.1,1378.2 1494.8,1279.2 1565.7,1244.5 "
                 id="polygon890" />
              <polygon
                 class="st7"
                 points="1540.8,1387.3 1525.1,1378.2 1494.8,1279.2 1565.7,1244.5 1594.9,1266.7 "
                 id="polygon892" />
            </g>
            <path
               id="HEAD_5_"
               class="st17"
               d="m 1534.8,1285.7 c -5.1,0.5 -15.4,-4.7 -27.1,-12.1 l -13.7,11.1 c -7.9,6.4 -19.5,5.3 -25.9,-2.6 -2.8,-3.4 -4.2,-7.6 -4.2,-11.7 0,-5.3 2.3,-10.6 6.8,-14.3 l 5.6,-4.6 c -14.7,-11 -26.2,-20.5 -26.2,-20.5 0,0 25.5,-76.6 107,-84.4 0,0 43.2,89.3 46.1,97.8 2.9,8.6 -39.6,38.4 -68.4,41.3 z" />
            <path
               id="HAIR_2_"
               class="st4"
               d="m 1476.3,1251.5 c -14.7,-11 -26.2,-20.5 -26.2,-20.5 0,0 9.4,-28.3 35.2,-52.3 -27,26.9 13.3,56.9 -9,72.8 z" />
            <g
               id="FACE">
              <path
                 class="st19"
                 d="m 1490.5,1199.9 c 0,0 4.3,-11.6 15.2,-17.6"
                 id="path897" />
              <path
                 class="st19"
                 d="m 1568.5,1170.5 c 0,0 -15.1,-2.1 -22.6,2.5 -7.5,4.6 -7.5,28.4 4.5,43.3"
                 id="path899" />
              <path
                 class="st19"
                 d="m 1557.6,1231.2 c 0,0 -9.3,8.3 -25.1,2.2"
                 id="path901" />
              <path
                 class="st19"
                 d="m 1534,1229 c 0,0 -3.3,4.7 -3.1,10"
                 id="path903" />
              <ellipse
                 transform="matrix(0.9658,-0.2593,0.2593,0.9658,-261.7921,433.6165)"
                 class="st7"
                 cx="1512.9"
                 cy="1209.2"
                 rx="3"
                 ry="5.9000001"
                 id="ellipse905" />
              <ellipse
                 transform="matrix(0.9658,-0.2593,0.2593,0.9658,-255.2721,444.5919)"
                 class="st7"
                 cx="1557.7"
                 cy="1190"
                 rx="2.7"
                 ry="5.5"
                 id="ellipse907" />
              <path
                 class="st19"
                 d="m 1512.9,1279.6 -23.1,-18 c -2.6,-2 -6.2,-1.8 -8.6,0.4 l -1.4,1.3 c -2.7,2.6 -2.7,6.8 0,9.4"
                 id="path909" />
            </g>
          </g>
        </g>
      </g>
    </g>
    <path
       style="fill:#f1aaa1;fill-opacity:1;stroke:#000000;stroke-width:0;stroke-miterlimit:4;stroke-dasharray:none;stroke-opacity:1"
       d="m 648.03693,399.38473 c -26.23407,-15.72986 -1.48803,-51.25241 4.10075,-70.3793 15.19451,-53.16941 17.19881,-67.16917 12.04544,-84.13554 C 657.44263,222.6783 613.62995,145.44196 584.38233,104.19096 569.54259,83.260927 552.23927,62.819981 536.16654,47.232164 515.90713,27.583955 499.8401,17.140865 480.8577,11.283062 474.12736,9.2061389 468.21287,8.8081229 444.44961,8.8329829 c -28.80826,0.03014 -38.13305,0.89647 -74.3085,6.9036981 C 310.88516,25.57661 274.48177,34.698088 101.2794,83.104487 -22.231195,117.62309 -56.415819,127.02139 -58.460475,127.02139 c -0.7941,0 -2.04936,-2.27992 -2.78946,-5.06649 l -1.34565,-5.06649 -0.13963,5.59766 -0.13964,5.59766 -8.44415,1.55656 c -4.64428,0.8561 -13.92638,1.91392 -20.62689,2.35069 -10.647435,0.69405 -12.435215,0.49 -14.186165,-1.61913 -1.65798,-1.99715 -2.08509,-10.04728 -2.47703,-46.68723 -0.52164,-48.764741 -190.23071,-108.444591 -92.64487,-128.328936 30.26862,-6.167614 28.39428,-113.956604 48.27005,-123.771384 23.16489,-11.43896 106.260474,-60.64271 177.075419,-66.96095 11.346529,-1.01236 185.121161,26.89579 394.804971,26.15034 169.03466,3.64126 415.91172,-72.65469 402.11008,109.521187 C 952.46518,17.425793 799.04349,489.92775 648.03693,399.38473 Z M 782.46296,45.704232 c -0.4313,-1.077784 -0.75144,-0.757649 -0.81627,0.816272 -0.0586,1.424238 0.26067,2.222217 0.70961,1.773272 0.44895,-0.448959 0.49695,-1.614251 0.10661,-2.589544 z"
       id="path9539"
       sodipodi:nodetypes="scssssssssscccsssssssccssssss" />
  </g>
  <style
     type="text/css"
     id="style638">
	.st0{fill:#D0F0E4;}
	.st1{fill:none;stroke:#FFCF2D;stroke-width:6;stroke-miterlimit:10;}
	.st2{fill:none;stroke:#FE5244;stroke-width:5;stroke-miterlimit:10;}
	.st3{fill:#A0505A;}
	.st4{fill:#FFCF2D;}
	.st5{fill:#FFFFFF;stroke:#9A3B82;stroke-width:5;stroke-miterlimit:10;}
	.st6{fill:none;stroke:#9A3B82;stroke-width:5;stroke-miterlimit:10;}
	.st7{fill:#9A3B82;}
	.st8{fill:#FE5244;}
	.st9{fill:none;stroke:#FFFFFF;stroke-width:6;stroke-linecap:round;stroke-miterlimit:10;}
	.st10{fill:#FFFFFF;stroke:#3FB1B5;stroke-width:5;stroke-linecap:round;stroke-miterlimit:10;}
	.st11{fill:#FFFFFF;stroke:#FE5244;stroke-width:5;stroke-miterlimit:10;}
	.st12{fill:none;stroke:#73325A;stroke-width:4;stroke-linecap:round;stroke-miterlimit:10;}
	.st13{fill:#73325A;}
	.st14{fill:#FFFFFF;stroke:#9A3B82;stroke-width:4;stroke-miterlimit:10;}
	.st15{fill:#3FB1B5;}
	.st16{fill:none;stroke:#3FB1B5;stroke-width:5;stroke-linecap:round;stroke-miterlimit:10;}
	.st17{fill:#E57281;}
	.st18{fill:none;stroke:#FE5244;stroke-width:5;stroke-linecap:round;stroke-miterlimit:10;}
	.st19{fill:none;stroke:#9A3B82;stroke-width:4;stroke-linecap:round;stroke-miterlimit:10;}
	.st20{fill:#FFFFFF;}
</style>
</svg>
