<?xml version="1.0" encoding="UTF-8" standalone="no"?>
<!-- Created with Inkscape (http://www.inkscape.org/) -->

<svg
   width="640"
   height="1136"
   viewBox="0 0 169.33333 300.56667"
   version="1.1"
   id="svg5"
   inkscape:version="1.1 (1:1.1+202105261517+ce6663b3b7)"
   sodipodi:docname="mobileHome.svg"
   xmlns:inkscape="http://www.inkscape.org/namespaces/inkscape"
   xmlns:sodipodi="http://sodipodi.sourceforge.net/DTD/sodipodi-0.dtd"
   xmlns="http://www.w3.org/2000/svg"
   xmlns:svg="http://www.w3.org/2000/svg">
  <sodipodi:namedview
     id="namedview7"
     pagecolor="#ffffff"
     bordercolor="#666666"
     borderopacity="1.0"
     inkscape:pageshadow="2"
     inkscape:pageopacity="0.0"
     inkscape:pagecheckerboard="0"
     inkscape:document-units="px"
     showgrid="false"
     inkscape:zoom="0.49647887"
     inkscape:cx="319.24823"
     inkscape:cy="569.00709"
     inkscape:window-width="1366"
     inkscape:window-height="704"
     inkscape:window-x="1920"
     inkscape:window-y="27"
     inkscape:window-maximized="1"
     inkscape:current-layer="layer1" />
  <defs
     id="defs2">
    <style
       id="style1012">.cls-1{fill:#f2f2f2;}.cls-14,.cls-15,.cls-2,.cls-6{fill:none;stroke-linecap:round;stroke-linejoin:round;}.cls-15,.cls-2{stroke:#a4a4a4;}.cls-2{stroke-width:3px;}.cls-3{fill:#6bd5e1;}.cls-4{fill:#e49d75;}.cls-5{fill:#d38d6a;}.cls-6{stroke:#e0e0e0;stroke-width:2px;}.cls-7{fill:#e0e0e0;}.cls-8{fill:#5fc5d1;}.cls-9{fill:#ffc78e;}.cls-10{fill:#ffd98e;}.cls-11{fill:#fd8369;}.cls-12{fill:#a4a4a4;}.cls-13{fill:#ffe4ad;}.cls-14{stroke:#6bd5e1;}.cls-14,.cls-15{stroke-width:6px;}</style>
  </defs>
  <g
     inkscape:label="Layer 1"
     inkscape:groupmode="layer"
     id="layer1">
    <g
       id="vector"
       transform="matrix(0.21880323,0,0,0.21880323,1.4153372,109.3636)">
      <path
         class="cls-1"
         d="m 529.11,196.16 c 60.5,79.91 134.28,145.12 130.28,204.77 -4,59.5 -85.76,113.3 -176.37,162 C 392.27,611.69 292.81,655.35 215,628 137.19,600.65 81,502 64.74,402.4 48.48,302.8 71.77,202 130,122.67 188.23,43.34 281.11,-14.89 351.31,3.38 c 70.2,18.27 117.3,112.73 177.8,192.78 z"
         id="path1018" />
      <line
         class="cls-2"
         x1="412.19"
         y1="406.42999"
         x2="412.19"
         y2="656.46997"
         id="line1020" />
      <rect
         class="cls-3"
         x="502.09"
         y="144.2"
         width="31.299999"
         height="44.02"
         rx="12"
         id="rect1022" />
      <path
         class="cls-4"
         d="m 397.09,679.1 c -1.11,2.77 -8.68,19.76 -8.68,19.76 l 24.46,9.32 7.3,-24.28 z"
         id="path1024" />
      <polygon
         class="cls-4"
         points="537.16,655.08 542.19,673.64 520.17,684.41 505.65,669.3 "
         id="polygon1026" />
      <path
         class="cls-5"
         d="m 505.6,299.44 c -2.51,2.9 -23.3,27.84 -24.79,29.81 -1.49,1.97 -62.36,20.47 -65.57,21.33 -3.21,0.86 -14.75,5.88 -18,5.88 -3.25,0 -13.68,-3.45 -18,-2.74 -4.32,0.71 -18.11,8.78 -16.78,12 1.33,3.22 150.21,-7.53 150.21,-7.53 l 16.23,-50.51 z"
         id="path1028" />
      <line
         class="cls-6"
         x1="534.79999"
         y1="532.45001"
         x2="496.97"
         y2="727.33002"
         id="line1030" />
      <polygon
         class="cls-7"
         points="678.63,532.45 521.82,532.45 521.82,511.75 609.62,453.45 674.21,214.45 759.77,214.45 "
         id="polygon1032" />
      <path
         class="cls-8"
         d="m 497,514.21 c 4.34,8.87 41,133.39 41.95,140.63 -4.67,4.9 -24.92,15.8 -33.57,16.51 C 490.73,659.82 449.68,563 449.68,563 c 0,0 13.98,-80.33 47.32,-48.79 z"
         id="path1034" />
      <path
         class="cls-3"
         d="m 673.54,395.59 c 3.18,3.78 13.47,59.57 15,74 2.35,22.68 -41.62,55.9 -103.69,55.9 -20.49,0 -88.33,-4.57 -107.82,-11.93 -1,12.33 -50.14,166.11 -55.71,171.68 -9.15,2.39 -22.68,-2.58 -26.06,-6 -3.38,-3.42 23.48,-215.86 31,-229.58 C 433.78,435.94 587,425.63 587,425.63 Z"
         id="path1036" />
      <path
         class="cls-9"
         d="m 567.18,236.35 c 28.77,16.79 -14.25,90.13 -19.69,92 -8.67,-1 -38.86,-18.65 -44.52,-31.64 -1.22,-7.98 39.64,-74.71 64.21,-60.36 z"
         id="path1038" />
      <path
         class="cls-10"
         d="m 583.12,205.91 c 48.09,0 94.4,183.59 92.5,190.94 -3.89,15.07 -82.67,42.63 -95.31,30.79 -31.97,-29.92 -90.93,-221.73 2.81,-221.73 z"
         id="path1040" />
      <line
         class="cls-6"
         x1="669.59003"
         y1="532.45001"
         x2="707.41998"
         y2="727.33002"
         id="line1042" />
      <polygon
         points="341.15,696.83 390.63,698.3 414.72,708.92 402.17,740.58 334.42,710.39 "
         id="polygon1044" />
      <polygon
         points="486.81,720.79 519.17,683.34 542.6,671.35 559.25,701.06 493.08,734.58 "
         id="polygon1046" />
      <path
         class="cls-5"
         d="m 571.73,185.69 c 1.09,6.08 8,24.41 11,27.77 3,3.36 -13.15,23 -31.11,19.4 -0.54,-6.17 -2.67,-23.64 -5.49,-26.54 -2.82,-2.9 25.6,-20.63 25.6,-20.63 z"
         id="path1048" />
      <ellipse
         class="cls-4"
         cx="540.60999"
         cy="158.56"
         rx="37.18"
         ry="50.5"
         transform="matrix(0.95,-0.31,0.31,0.95,-22.52,175.29)"
         id="ellipse1050" />
      <path
         class="cls-11"
         d="m 510.63,89.64 c 19.92,0 71.11,35.39 71.11,71 0,19.11 -3.38,24 -4.66,24 -1.28,0 -13.64,-9.59 -13.64,-16.48 0,-6.89 -2.43,-17.08 -4.8,-17.08 -4,0 -4.59,4.45 -14.65,4.45 -3.85,0 -11.08,-4.59 -11.08,-9.86 -8.17,0.14 -8.17,2.84 -19.38,2.84 -12.7,0 -43.9,-6.42 -43.9,-16.28 0,-6.68 8.71,-11.28 17.29,-9.65 -5.81,-3.11 -11,-9.53 -11,-13.78 0,-5.95 7.5,-10.06 13.31,-10.06 6.89,0 12.83,2.9 15.8,5.74 -2.37,-4.1 -0.03,-14.84 5.6,-14.84 z"
         id="path1052" />
      <circle
         class="cls-4"
         cx="557.04999"
         cy="161.09"
         r="10.33"
         id="circle1054" />
      <rect
         class="cls-12"
         y="391.89999"
         width="518.60999"
         height="14.54"
         id="rect1056"
         x="0" />
      <polygon
         class="cls-7"
         points="474,368.28 259.3,368.28 258.76,368.28 44.06,368.28 0,391.77 258.76,391.77 259.3,391.77 518.07,391.77 "
         id="polygon1058" />
      <line
         class="cls-2"
         x1="65.309998"
         y1="406.42999"
         x2="65.309998"
         y2="711.39001"
         id="line1060" />
      <line
         class="cls-2"
         x1="106.41"
         y1="406.42999"
         x2="106.41"
         y2="656.46997"
         id="line1062" />
      <line
         class="cls-2"
         x1="453.29999"
         y1="406.42999"
         x2="453.29999"
         y2="711.39001"
         id="line1064" />
      <rect
         class="cls-12"
         x="305.85001"
         y="369.91"
         width="91.949997"
         height="6.3000002"
         id="rect1066" />
      <rect
         class="cls-12"
         x="190.78999"
         y="362.07001"
         width="17.6"
         height="20.950001"
         id="rect1068" />
      <ellipse
         class="cls-1"
         cx="373.98999"
         cy="379.39001"
         rx="20.620001"
         ry="9.6400003"
         id="ellipse1070" />
      <path
         class="cls-4"
         d="m 520.26,309.46 c -3,3.27 -21.36,29.67 -23.34,32.46 -42,4.9 -97.5,18.37 -99.54,18.44 -2.04,0.07 -25.38,-7.49 -28.51,-6.94 -3.13,0.55 -9.53,11.77 -9.26,14.08 0.27,2.31 18.65,13.41 39.81,13.13 4,-0.27 5.31,-2.45 9.46,-2.45 4.15,0 99,7.33 115.46,-1.27 8.95,-4.69 34.1,-40.06 34.1,-42.71 0,-2.65 -38.18,-24.74 -38.18,-24.74 z"
         id="path1072" />
      <path
         class="cls-13"
         d="m 580.13,244.91 c 28.76,16.79 -14.25,90.13 -19.69,92 -8.68,-1 -38.86,-18.65 -44.53,-31.64 -1.22,-7.98 39.64,-74.71 64.22,-60.36 z"
         id="path1074" />
      <rect
         class="cls-7"
         x="175.87"
         y="102.08"
         width="8.4300003"
         height="271.37"
         id="rect1076" />
      <polygon
         class="cls-12"
         points="184.29,373.45 224.15,358.87 224.15,237.76 224.15,116.65 184.29,102.08 184.29,237.76 "
         id="polygon1078" />
      <rect
         class="cls-3"
         x="540.60999"
         y="144.2"
         width="31.299999"
         height="44.02"
         rx="12"
         id="rect1080" />
      <path
         class="cls-14"
         d="m 557.05,149.75 c 0,-5.55 1.92,-38.24 -16.44,-47.89"
         id="path1082" />
      <path
         class="cls-15"
         d="m 556.26,188.22 c 0,3.19 -1.26,21.28 -15,21.28"
         id="path1084" />
    </g>
  </g>
</svg>
