<?xml version="1.0" encoding="UTF-8" standalone="no"?>
<!-- Created with Inkscape (http://www.inkscape.org/) -->

<svg
   width="2560"
   height="1440"
   viewBox="0 0 677.33333 381"
   version="1.1"
   id="svg5"
   inkscape:version="1.1 (1:1.1+202105261517+ce6663b3b7)"
   sodipodi:docname="projectsBG.svg"
   xmlns:inkscape="http://www.inkscape.org/namespaces/inkscape"
   xmlns:sodipodi="http://sodipodi.sourceforge.net/DTD/sodipodi-0.dtd"
   xmlns="http://www.w3.org/2000/svg"
   xmlns:svg="http://www.w3.org/2000/svg">
  <sodipodi:namedview
     id="namedview7"
     pagecolor="#ffffff"
     bordercolor="#666666"
     borderopacity="1.0"
     inkscape:pageshadow="2"
     inkscape:pageopacity="0.0"
     inkscape:pagecheckerboard="0"
     inkscape:document-units="px"
     showgrid="false"
     inkscape:zoom="0.39166666"
     inkscape:cx="1363.4043"
     inkscape:cy="795.31916"
     inkscape:window-width="1366"
     inkscape:window-height="704"
     inkscape:window-x="0"
     inkscape:window-y="27"
     inkscape:window-maximized="1"
     inkscape:current-layer="Layer_1-2"
     showguides="false" />
  <defs
     id="defs2">
    <style
       id="style10437">.cls-1{fill:#f8f8f8;}.cls-2{fill:#56cad8;}.cls-3{fill:#74d5de;}.cls-4{fill:#de8e68;}.cls-5{fill:#dedede;}.cls-6{fill:none;stroke:#000;stroke-linecap:round;stroke-linejoin:round;stroke-width:8px;}.cls-7{fill:#fed385;}.cls-8{fill:#fd8369;}.cls-9{fill:#fed892;}</style>
    <style
       id="style15197">.cls-1{fill:#f2f2f2;}.cls-12,.cls-14,.cls-2,.cls-3,.cls-5,.cls-6,.cls-8,.cls-9{fill-rule:evenodd;}.cls-3{fill:#ffd98e;}.cls-10,.cls-11,.cls-13,.cls-4,.cls-7{fill:none;stroke-linecap:round;stroke-linejoin:round;}.cls-11,.cls-4{stroke:#ff8364;}.cls-4{stroke-width:5.73px;}.cls-5{fill:#d18c65;}.cls-6{fill:#ff8364;}.cls-13,.cls-7{stroke:#ffd98e;}.cls-7{stroke-width:2.83px;}.cls-8{fill:#6bd5e1;}.cls-9{fill:#dfdfdf;}.cls-10{stroke:#6bd5e1;}.cls-10,.cls-11{stroke-width:3.11px;}.cls-12{fill:#1b3c87;}.cls-13{stroke-width:4.23px;}.cls-14{fill:#e49d75;}</style>
  </defs>
  <g
     inkscape:label="Layer 1"
     inkscape:groupmode="layer"
     id="layer1">
    <path
       style="fill:none;stroke:#000000;stroke-width:0.264583px;stroke-linecap:butt;stroke-linejoin:miter;stroke-opacity:1"
       d="M -11.950202,-168.05332 Z"
       id="path28199" />
    <g
       id="Layer_1-2"
       data-name="Layer 1"
       transform="matrix(0.26458333,0,0,0.26458333,193.49392,-27.82306)">
      <path
         class="cls-6"
         d="m -559.44594,1389.3849 c -14.76,-11.51 -18.4,1.35 -20.71,9 -2.31,7.65 -2.14,21.14 9.43,20.85 10.14,9.09 19.58,-2.68 22.48,-8.66 2.9,-5.98 10.02,-18.95 -11.2,-21.19 z"
         id="path15217" />
      <path
         class="cls-7"
         d="m -549.68594,1381.1849 c -5.09,1.79 -7.95,4.23 -9.57,8.47"
         id="path15219" />
      <path
         class="cls-8"
         d="m 414.34385,716.00985 a 17.14,17.14 0 1 1 17.18,17.13 17.14,17.14 0 0 1 -17.18,-17.13 z"
         id="path15221" />
      <path
         class="cls-9"
         d="m 1587.8349,1405.5352 47.47,-12.05 19.23,75.78 -47.46,12 z"
         id="path15223" />
      <path
         class="cls-6"
         d="m 1597.8349,1413.8852 32.66,-8.29 2.52,9.93 -32.66,8.27 z"
         id="path15225" />
      <path
         class="cls-10"
         d="m 1603.0949,1434.5952 32.66,-8.29"
         id="path15227" />
      <path
         class="cls-10"
         d="m 1605.8349,1445.3752 32.67,-8.29"
         id="path15229" />
      <path
         class="cls-10"
         d="m 1608.7049,1456.6252 32.69,-8.3"
         id="path15231" />
      <path
         class="cls-10"
         d="m 1611.4449,1467.4952 12.82,-3.26"
         id="path15233" />
      <path
         class="cls-10"
         d="m 1638.9949,1460.4952 5.14,-1.3"
         id="path15235" />
      <path
         class="cls-11"
         d="m 306.66385,614.29985 12.22,-35.77 22.77,4.3 8.94,-44.11 22,3.66 6.4,-31.12"
         id="path15239" />
      <path
         class="cls-3"
         d="m 314.57385,580.82985 a 6.33,6.33 0 1 1 8.45,3 6.33,6.33 0 0 1 -8.45,-3 z"
         id="path15241" />
      <path
         class="cls-3"
         d="m 345.17385,542.44985 a 6.34,6.34 0 1 1 8.45,3 6.33,6.33 0 0 1 -8.45,-3 z"
         id="path15243" />
      <path
         class="cls-3"
         d="m 1463.8919,514.37482 a 21.7,21.7 0 1 1 21.66,21.7 21.69,21.69 0 0 1 -21.66,-21.7 z"
         id="path15245" />
      <path
         class="cls-11"
         d="m 1522.2219,510.58482 a 25,25 0 0 1 -24,31.76 25.14,25.14 0 0 1 -4.87,-0.47"
         id="path15247" />
      <path
         class="cls-3"
         d="m 1472.4319,530.85482 -8.32,14.92 34.35,5.52 -3.76,-17.38"
         id="path15249" />
      <path
         class="cls-12"
         d="m 1480.4719,514.37482 a 5.12,5.12 0 1 1 5.12,5.12 5.12,5.12 0 0 1 -5.12,-5.12 z"
         id="path15251" />
      <path
         class="cls-3"
         d="m 1515.7219,509.25482 a 5.12,5.12 0 1 1 5.12,5.12 5.13,5.13 0 0 1 -5.12,-5.12 z"
         id="path15253" />
      <path
         class="cls-6"
         d="m -559.07522,610.16159 32.09,8.67 -31.6,117 -32.09,-8.64 z"
         id="path15255" />
      <path
         class="cls-13"
         d="m -580.47522,689.42159 17.67,4.78"
         id="path15257" />
      <path
         class="cls-13"
         d="m -586.08522,710.18159 17.68,4.77"
         id="path15259" />
      <path
         class="cls-13"
         d="m -574.87522,668.69159 17.68,4.78"
         id="path15261" />
      <path
         class="cls-13"
         d="m -569.26522,647.92159 17.67,4.77"
         id="path15263" />
      <path
         class="cls-13"
         d="m -563.66522,627.17159 17.68,4.77"
         id="path15265" />
      <path
         class="cls-9"
         d="m 428.25446,1285.4981 121.17,29.25 -20,82.62 -121.12,-29.26 z"
         id="path15267" />
      <path
         class="cls-6"
         d="m 500.72446,1375.0681 a 13.06,13.06 0 1 1 9.63,15.76 13.06,13.06 0 0 1 -9.63,-15.76 z"
         id="path15269" />
      <path
         class="cls-6"
         d="m 504.58446,1385.8181 -8.71,22.71 12.16,-2.75 7.81,7.25 1.57,-24.74"
         id="path15271" />
      <path
         class="cls-10"
         d="m 435.41446,1306.9281 95.66,23.1"
         id="path15273" />
      <path
         class="cls-10"
         d="m 429.87446,1329.5981 57.77,13.95"
         id="path15275" />
      <path
         class="cls-8"
         d="m 356.66385,434.30985 -13,-14.09 18.7,-4.23 18.71,-4.23 -5.69,18.32 -5.69,18.31 z"
         id="path15277" />
      <path
         class="cls-8"
         d="m -274.59561,213.91286 -13,-14.09 18.7,-4.23 18.71,-4.23 -5.69,18.32 -5.69,18.31 z"
         id="path15277-6"
         style="fill:#6bd5e1;fill-rule:evenodd" />
      <path
         class="cls-3"
         d="m 614.95385,729.70985 -17.81,7.12 2.73,-19 2.73,-19 15.07,11.85 15.08,11.86 z"
         id="path15279" />
      <path
         class="cls-11"
         d="m 468.76385,500.82985 a 9.3,9.3 0 1 1 9.3,9.3 9.3,9.3 0 0 1 -9.3,-9.3 z"
         id="path15281" />
      <path
         class="cls-3"
         d="m 208.92385,656.62985 a 9.3,9.3 0 1 1 9.3,9.3 9.3,9.3 0 0 1 -9.3,-9.3 z"
         id="path15283" />
      <path
         class="cls-3"
         d="m 26.7539,322.89834 a 17.14,17.14 0 1 1 17.13,17.13 17.13,17.13 0 0 1 -17.13,-17.13 z"
         id="path15293" />
      <path
         class="cls-10"
         d="m 1200.1047,604.37416 a 16,16 0 1 1 16,16 16,16 0 0 1 -16,-16 z"
         id="path15295" />
      <path
         class="cls-11"
         d="m -400.04031,856.91542 a 9.31,9.31 0 1 1 9.31,9.3 9.3,9.3 0 0 1 -9.31,-9.3 z"
         id="path15297" />
      <path
         class="cls-6"
         d="m -559.44594,1390.1349 c -14.76,-11.52 -18.4,1.35 -20.71,9 -2.31,7.65 -2.14,21.14 9.43,20.85 10.14,9.1 19.58,-2.67 22.48,-8.65 2.9,-5.98 10.02,-18.96 -11.2,-21.2 z"
         id="path15313" />
      <path
         class="cls-7"
         d="m -549.68594,1381.9249 c -5.09,1.79 -7.95,4.23 -9.57,8.47"
         id="path15315" />
      <path
         class="cls-8"
         d="m 414.34385,716.74985 a 17.14,17.14 0 1 1 17.18,17.13 17.13,17.13 0 0 1 -17.18,-17.13 z"
         id="path15317" />
      <path
         class="cls-8"
         d="m -573.60971,1002.3936 a 17.14,17.14 0 1 1 17.18,17.13 17.13,17.13 0 0 1 -17.18,-17.13 z"
         id="path15317-9"
         style="fill:#6bd5e1;fill-rule:evenodd" />
      <path
         class="cls-9"
         d="m 1587.8349,1406.2752 47.47,-12.05 19.23,75.78 -47.46,12.05 z"
         id="path15319" />
      <path
         class="cls-6"
         d="m 1597.8349,1414.6252 32.66,-8.29 2.52,9.93 -32.66,8.29 z"
         id="path15321" />
      <path
         class="cls-10"
         d="m 1603.0949,1435.3452 32.66,-8.3"
         id="path15323" />
      <path
         class="cls-10"
         d="m 1605.8349,1446.1252 32.67,-8.33"
         id="path15325" />
      <path
         class="cls-10"
         d="m 1608.7049,1457.3652 32.69,-8.3"
         id="path15327" />
      <path
         class="cls-10"
         d="m 1611.4449,1468.2352 12.82,-3.25"
         id="path15329" />
      <path
         class="cls-10"
         d="m 1638.9949,1461.2352 5.14,-1.3"
         id="path15331" />
      <path
         class="cls-11"
         d="m 306.66385,615.03985 12.22,-35.76 22.77,4.24 8.94,-44.11 22,3.66 6.4,-31.11"
         id="path15335" />
      <path
         class="cls-3"
         d="m 314.57385,581.61985 a 6.34,6.34 0 1 1 8.45,3 6.35,6.35 0 0 1 -8.45,-3 z"
         id="path15337" />
      <path
         class="cls-3"
         d="m 345.17385,543.18985 a 6.34,6.34 0 1 1 8.45,3 6.33,6.33 0 0 1 -8.45,-3 z"
         id="path15339" />
      <path
         class="cls-3"
         d="m 1463.8919,515.11482 a 21.7,21.7 0 1 1 21.66,21.66 21.7,21.7 0 0 1 -21.66,-21.66 z"
         id="path15341" />
      <path
         class="cls-11"
         d="m 1522.2219,511.33482 a 24.6,24.6 0 0 1 0.94,6.8 24.95,24.95 0 0 1 -29.82,24.48"
         id="path15343" />
      <path
         class="cls-3"
         d="m -108.34273,1173.2861 -8.32,14.89 34.35,5.53 -3.76,-17.39"
         id="path15345" />
      <path
         class="cls-12"
         d="m 1480.4719,515.11482 a 5.12,5.12 0 1 1 5.12,5.12 5.12,5.12 0 0 1 -5.12,-5.12 z"
         id="path15347" />
      <path
         class="cls-3"
         d="m 1515.7219,509.99482 a 5.12,5.12 0 1 1 5.12,5.12 5.12,5.12 0 0 1 -5.12,-5.12 z"
         id="path15349" />
      <path
         class="cls-6"
         d="m -559.07522,610.90159 32.09,8.68 -31.6,117 -32.12,-8.67 z"
         id="path15351" />
      <path
         class="cls-13"
         d="m -580.47522,690.17159 17.67,4.77"
         id="path15353" />
      <path
         class="cls-13"
         d="m -586.08522,710.92159 17.68,4.77"
         id="path15355" />
      <path
         class="cls-13"
         d="m -574.87522,669.42159 17.68,4.77"
         id="path15357" />
      <path
         class="cls-13"
         d="m -569.26522,648.69159 17.67,4.77"
         id="path15359" />
      <path
         class="cls-13"
         d="m -563.66522,627.91159 17.68,4.78"
         id="path15361" />
      <path
         class="cls-9"
         d="m 428.25446,1286.2881 121.17,29.21 -20,82.61 -121.12,-29.26 z"
         id="path15363" />
      <path
         class="cls-6"
         d="m 500.72446,1375.8081 a 13.06,13.06 0 1 1 9.63,15.76 13.06,13.06 0 0 1 -9.63,-15.76 z"
         id="path15365" />
      <path
         class="cls-6"
         d="m 504.58446,1386.5681 -8.71,22.72 12.16,-2.76 7.81,7.25 1.57,-24.75"
         id="path15367" />
      <path
         class="cls-10"
         d="m 435.41446,1307.6781 95.66,23.1"
         id="path15369" />
      <path
         class="cls-10"
         d="m 429.87446,1330.3481 57.77,13.94"
         id="path15371" />
      <path
         class="cls-8"
         d="m 961.09628,184.02233 -13,-14.08 18.7,-4.23 18.71,-4.23 -5.7,18.32 -5.69,18.32 z"
         id="path15373-3"
         style="fill:#6bd5e1;fill-rule:evenodd" />
      <path
         class="cls-8"
         d="m 196.61114,1073.6343 -13,-14.08 18.7,-4.23 18.71,-4.23 -5.7,18.32 -5.69,18.32 z"
         id="path15373-6"
         style="fill:#6bd5e1;fill-rule:evenodd" />
      <path
         class="cls-8"
         d="m 776.31715,1315.5254 -13,-14.08 18.7,-4.23 18.71,-4.23 -5.7,18.32 -5.69,18.32 z"
         id="path15373-0"
         style="fill:#6bd5e1;fill-rule:evenodd" />
      <path
         class="cls-8"
         d="m 240.94089,1253.5916 -13,-14.08 18.7,-4.23 18.71,-4.23 -5.7,18.32 -5.69,18.32 z"
         id="path15373-7"
         style="fill:#6bd5e1;fill-rule:evenodd" />
      <path
         class="cls-8"
         d="m 45.653684,1418.3433 -13,-14.08 18.7,-4.23 18.71,-4.23 -5.7,18.32 -5.69,18.32 z"
         id="path15373-06"
         style="fill:#6bd5e1;fill-rule:evenodd" />
      <path
         class="cls-8"
         d="m 1150.0137,1411.6704 -13,-14.08 18.7,-4.23 18.71,-4.23 -5.7,18.32 -5.69,18.32 z"
         id="path15373-2"
         style="fill:#6bd5e1;fill-rule:evenodd" />
      <path
         class="cls-3"
         d="m 1126.4011,1169.771 a 17.14,17.14 0 1 1 17.13,17.12 17.13,17.13 0 0 1 -17.13,-17.12 z"
         id="path15389-1"
         style="fill:#ffd98e;fill-rule:evenodd" />
      <path
         class="cls-3"
         d="m -581.18759,1226.722 a 17.14,17.14 0 1 1 17.13,17.12 17.13,17.13 0 0 1 -17.13,-17.12 z"
         id="path15389-1-2"
         style="fill:#ffd98e;fill-rule:evenodd" />
      <path
         class="cls-3"
         d="m 614.95385,730.44985 -17.81,7.13 2.73,-19 2.73,-19 15.07,11.85 15.08,11.85 z"
         id="path15375" />
      <path
         class="cls-3"
         d="m 1333.5021,581.47782 a 17.14,17.14 0 1 1 17.13,17.12 17.13,17.13 0 0 1 -17.13,-17.12 z"
         id="path15389-9"
         style="fill:#ffd98e;fill-rule:evenodd" />
      <path
         class="cls-11"
         d="m 468.76385,501.58985 a 9.3,9.3 0 1 1 9.3,9.3 9.3,9.3 0 0 1 -9.3,-9.3 z"
         id="path15377" />
      <path
         class="cls-3"
         d="m 208.92385,657.36985 a 9.3,9.3 0 1 1 9.3,9.3 9.3,9.3 0 0 1 -9.3,-9.3 z"
         id="path15379" />
      <path
         class="cls-3"
         d="m 802.06201,344.84507 a 17.14,17.14 0 1 1 17.13,17.12 17.13,17.13 0 0 1 -17.13,-17.12 z"
         id="path15389" />
      <path
         class="cls-3"
         d="m 1021.6524,352.19182 a 17.14,17.14 0 1 1 17.13,17.12 17.13,17.13 0 0 1 -17.13,-17.12 z"
         id="path15389-3"
         style="fill:#ffd98e;fill-rule:evenodd" />
      <path
         class="cls-3"
         d="m -205.70409,417.02028 a 17.14,17.14 0 1 1 17.13,17.12 17.13,17.13 0 0 1 -17.13,-17.12 z"
         id="path15389-6"
         style="fill:#ffd98e;fill-rule:evenodd" />
      <path
         class="cls-3"
         d="m -612.09961,234.32948 a 17.14,17.14 0 1 1 17.13,17.12 17.13,17.13 0 0 1 -17.13,-17.12 z"
         id="path15389-7"
         style="fill:#ffd98e;fill-rule:evenodd" />
      <path
         class="cls-3"
         d="m 334.17721,156.94432 a 17.14,17.14 0 1 1 17.13,17.12 17.13,17.13 0 0 1 -17.13,-17.12 z"
         id="path15389-5"
         style="fill:#ffd98e;fill-rule:evenodd" />
      <path
         class="cls-3"
         d="m 1577.4151,162.96677 a 17.14,17.14 0 1 1 17.13,17.12 17.13,17.13 0 0 1 -17.13,-17.12 z"
         id="path15389-35"
         style="fill:#ffd98e;fill-rule:evenodd" />
      <path
         class="cls-3"
         d="m 1599.4285,1028.2358 a 17.14,17.14 0 1 1 17.1299,17.12 17.13,17.13 0 0 1 -17.1299,-17.12 z"
         id="path15389-62"
         style="fill:#ffd98e;fill-rule:evenodd" />
      <path
         class="cls-10"
         d="m -279.61697,948.28715 a 16,16 0 1 1 16,16 16,16 0 0 1 -16,-16 z"
         id="path15391" />
      <path
         class="cls-10"
         d="m -333.83871,1359.3106 a 16,16 0 1 1 16,16 16,16 0 0 1 -16,-16 z"
         id="path15391-1"
         style="fill:none;stroke:#6bd5e1;stroke-width:3.11px;stroke-linecap:round;stroke-linejoin:round" />
      <path
         class="cls-10"
         d="m 1438.9463,1458.0345 a 16,16 0 1 1 16,16 16,16 0 0 1 -16,-16 z"
         id="path15391-8"
         style="fill:none;stroke:#6bd5e1;stroke-width:3.11px;stroke-linecap:round;stroke-linejoin:round" />
      <path
         class="cls-11"
         d="m 704.83011,961.72708 a 9.31,9.31 0 1 1 9.31,9.3 9.3,9.3 0 0 1 -9.31,-9.3 z"
         id="path15393" />
    </g>
  </g>
</svg>
